# xmcd
#
# Track frame offsets: 
#        150
#        15100
#        29757
#        45530
#        60872
#        77067
#        95125
#        108462
#        121262
#        135537
#        150447
#        164042
#        174995
#        185417
#        203322
#        216230
#        230687
#        246642
#        260322
#        277797
#        294455
#        310787
#
# Disc length: 4371 seconds
#
# Revision: 7
# Processed by: cddbd v1.5.2PL0 Copyright (c) Steve Scherf et al.
# Submitted via: ExactAudioCopy v1.0b1
#
DISCID=28111116
DTITLE=Various Artist - Contemporary Country Vol. 13 The Mid-'80s Hot Hits
DYEAR=1992
DGENRE=Country
TTITLE0=Rosanne Cash - I Don't Know Why You Don't Want Me
TTITLE1=Steve Wariner - Life's Highway
TTITLE2=Judds - Why Not Me
TTITLE3=John Schneider - What's A Memory Like You (Doing In A Love Lik
TTITLE3=e This)
TTITLE4=Reba McEntire - Somebody Should Leave
TTITLE5=Alabama - (There's A) Fire In The Night
TTITLE6=Kendalls - Thank God For The Radio
TTITLE7=Willie Nelson - Forgiving You Was Easy
TTITLE8=Merle Haggard With Janie Fricke - Natural High
TTITLE9=George Jones - Who's Gonna Fill Their Shoes
TTITLE10=Randy Travis - 1982
TTITLE11=Ricky Skaggs - Uncle Pen
TTITLE12=Statler Brothers - Hello Mary Lou
TTITLE13=Hank Williams Jr. - Country State Of Mind
TTITLE14=George Strait - The Chair
TTITLE15=Charly McClain - Radio Heart
TTITLE16=Oak Ridge Boys - Touch A Hand Make A Friend
TTITLE17=T. Graham Brown - I Tell It Like It Used To Be
TTITLE18=Judy Rodman - Until I Met You
TTITLE19=John Conlee - In My Eyes
TTITLE20=Don Williams - That's The Thing About Love
TTITLE21=Barbara Mandrell - Only A Lonely Heart Knows
EXTD=
EXTT0=
EXTT1=
EXTT2=
EXTT3=
EXTT4=
EXTT5=
EXTT6=
EXTT7=
EXTT8=
EXTT9=
EXTT10=
EXTT11=
EXTT12=
EXTT13=
EXTT14=
EXTT15=
EXTT16=
EXTT17=
EXTT18=
EXTT19=
EXTT20=
EXTT21=
PLAYORDER=
